<?xml version="1.0" standalone="no"?><!DOCTYPE svg PUBLIC "-//W3C//DTD SVG 1.1//EN" "http://www.w3.org/Graphics/SVG/1.1/DTD/svg11.dtd"><svg t="1662183861493" class="icon" viewBox="0 0 1024 1024" version="1.1" xmlns="http://www.w3.org/2000/svg" p-id="4158" xmlns:xlink="http://www.w3.org/1999/xlink" width="200" height="200"><path d="M845.799412 396.132062 536.605398 396.132062c-44.756343 0-82.001619 33.408901-87.195921 77.973886-0.678452 1.682315-1.003863 3.601015-1.003863 5.814426l0 67.171865c0 48.637744 39.562041 88.184435 88.199785 88.184435l309.192991 0c48.637744 0 88.184435-39.547715 88.184435-88.184435l0-62.773695C933.983847 435.678754 894.436132 396.132062 845.799412 396.132062zM876.433106 488.566288l0 54.274114c0 19.24225-15.642259 34.884508-34.884508 34.884508L540.840862 577.724911c-19.24225 0-34.884508-15.642259-34.884508-34.884508l0-54.274114c0-19.24225 15.642259-34.884508 34.884508-34.884508l300.707736 0C860.791871 453.68178 876.433106 469.324038 876.433106 488.566288z" p-id="4159"></path><path d="M830.42219 649.176243c-15.789615 0-28.686343 12.8384-28.77537 28.863375l0 107.545388c0 19.24225-15.671934 34.884508-34.914184 34.884508L174.790932 820.469514c-19.24225 0-34.898835-15.642259-34.898835-34.884508L139.892097 238.443647c0-19.24225 15.656585-34.914184 34.898835-34.914184l591.942727 0c19.24225 0 34.914184 15.670911 34.914184 34.914184l0 113.950262c0 15.877619 12.896728 28.77537 28.77537 28.77537 15.877619 0 28.77537-12.896728 28.77537-28.863375L859.198583 234.193857c0-48.637744-39.577391-88.214111-88.214111-88.214111L170.541141 145.979746c-48.637744 0-88.199785 39.577391-88.199785 88.214111l0 555.641963c0 48.637744 39.562041 88.184435 88.199785 88.184435L770.983449 878.020254c48.637744 0 88.214111-39.547715 88.214111-88.184435l0-112.031563C859.109556 662.014642 846.211804 649.176243 830.42219 649.176243z" p-id="4160"></path><path d="M817.318754 481.778698c-18.446118 0-33.438577 15.022135-33.438577 33.468253 0 18.446118 14.992459 33.438577 33.438577 33.438577 18.446118 0 33.468253-14.992459 33.468253-33.438577C850.787006 496.800833 835.764871 481.778698 817.318754 481.778698z" p-id="4161"></path></svg>