<?xml version="1.0" standalone="no"?><!DOCTYPE svg PUBLIC "-//W3C//DTD SVG 1.1//EN" "http://www.w3.org/Graphics/SVG/1.1/DTD/svg11.dtd"><svg t="1662183891059" class="icon" viewBox="0 0 1024 1024" version="1.1" xmlns="http://www.w3.org/2000/svg" p-id="5117" xmlns:xlink="http://www.w3.org/1999/xlink" width="200" height="200"><path d="M807.990806 181.429119 378.768091 181.429119c-41.024345 0-74.258261 33.122375-74.258261 73.933873l0 122.296347-158.666696 91.373057 0.191358 0.323365c-4.329609 3.148713-7.316639 8.011464-7.326872 13.765515l0 248.28376 0 0.039909c0 10.737552 7.79043 19.498076 17.428951 19.498076 9.627265 0 17.417695-8.760524 17.417695-19.498076l0-0.039909L173.554266 493.071905l156.941402-90.385567c7.589862-2.684132 13.08911-9.688663 13.08911-18.164708 0-0.040932-0.00921-0.061398-0.00921-0.081864l0.00921 0 0-125.181047c0-21.475104 17.509792-38.895869 39.087227-38.895869l421.401586 0c21.598924 0 39.076994 17.419741 39.076994 38.895869l0 412.562267c0 0.039909 0 0.079818 0 0.079818 0 10.739599 8.760524 19.458167 19.559475 19.458167 10.797927 0 19.537985-8.718569 19.537985-19.458167 0 0 0-0.039909 0-0.079818L882.248044 255.361969C882.248044 214.550471 849.005942 181.429119 807.990806 181.429119z" p-id="5118"></path><path d="M276.847817 548.981263c-10.314926 0.038886-18.700921 8.396227-18.700921 18.649755 0 10.254551 8.385994 18.61087 18.720364 18.61087 0.061398 0 0.141216-0.040932 0.201591-0.040932l98.366332 0c39.652092 0.201591 37.392632-37.21867 37.392632-37.21867l0-77.487815c0-10.273994-8.376785-18.608823-18.691711-18.608823-10.334369 0-18.709107 8.334829-18.709107 18.608823 0 0.040932 0.008186 0.081864 0.008186 0.121773l0 77.366042L276.847817 548.982286z" p-id="5119"></path><path d="M718.09131 649.618311c-49.552579 0-90.121554 37.21867-96.118128 84.974323l-196.197474-0.079818c-6.034437-47.714721-46.596248-84.894506-96.127338-84.894506-53.668317 0-97.347119 43.476187-97.347119 96.92347 0 53.40635 43.678802 96.883561 97.347119 96.883561 46.454008 0 85.309968-32.615838 94.936209-76.012208l198.61964 0.079818c9.668197 43.355437 48.486294 75.93239 94.888114 75.93239 53.689806 0 97.346095-43.476187 97.346095-96.883561C815.437405 693.095521 771.781116 649.618311 718.09131 649.618311zM329.64837 802.37132c-30.921243 0-56.081273-25.068955-56.081273-55.82954 0-30.801517 25.159006-55.828516 56.081273-55.828516s56.092529 25.027 56.092529 55.828516C385.7409 777.302365 360.569614 802.37132 329.64837 802.37132zM718.09131 802.37132c-30.92329 0-56.073086-25.068955-56.073086-55.82954 0-30.801517 25.149796-55.828516 56.073086-55.828516s56.090483 25.027 56.090483 55.828516C774.182816 777.302365 749.0146 802.37132 718.09131 802.37132z" p-id="5120"></path></svg>